<svg width="575" height="677" viewBox="0 0 575 677" fill="none" xmlns="http://www.w3.org/2000/svg">
<path d="M58.9404 575.135H179.227C181.607 612.037 202.675 645.157 235.087 662.953C267.494 680.75 306.754 680.75 339.16 662.953C371.572 645.155 392.639 612.035 395.02 575.135H515.307C530.588 575.146 545.28 569.219 556.28 558.609C567.28 547.999 573.734 533.535 574.28 518.259C574.827 502.983 569.426 488.093 559.207 476.729L506.27 417.745V309.849C506.166 266.395 493.171 223.947 468.926 187.885C444.68 151.827 410.28 123.77 370.076 107.275V85.4005C370.342 64.0619 362.519 43.4165 348.186 27.6085C333.847 11.8059 314.06 2.01521 292.8 0.201872C269.795 -1.41266 247.164 6.71228 230.451 22.6032C213.675 38.3112 204.134 60.2485 204.091 83.2339V107.578V107.573C163.955 124.099 129.612 152.146 105.398 188.171C81.1844 224.198 68.1898 266.587 68.0484 309.994V417.666L15.1111 476.65C4.89751 488.02 -0.508905 502.91 0.0377617 518.186C0.584642 533.457 7.03776 547.926 18.0378 558.535C29.043 569.145 43.7311 575.066 59.0164 575.062L58.9404 575.135ZM287.127 645.995C267.648 645.98 248.867 638.714 234.444 625.615C220.028 612.522 210.991 594.527 209.1 575.137H365.154C363.263 594.527 354.227 612.522 339.81 625.615C325.388 638.714 306.607 645.979 287.127 645.995ZM37.2871 496.662L94.0324 433.417V433.422C96.496 430.672 97.8502 427.104 97.8398 423.417V309.995C97.9387 270.897 110.111 232.782 132.7 200.865C155.289 168.947 187.184 144.786 224.028 131.693C229.97 129.578 233.944 123.963 233.96 117.657V83.0112C233.981 68.9179 239.585 55.4072 249.553 45.4379C259.517 35.4743 273.027 29.8645 287.121 29.8499H290.778C304.486 31.1468 317.199 37.5739 326.366 47.8499C335.532 58.1259 340.475 71.4859 340.21 85.2512V117.434C340.225 123.741 344.199 129.356 350.142 131.47C386.97 144.538 418.866 168.667 441.454 200.558C464.038 232.449 476.219 270.542 476.323 309.626V423.418C476.313 427.105 477.672 430.673 480.136 433.423L536.881 496.668V496.663C541.933 502.273 544.61 509.627 544.345 517.174C544.079 524.715 540.897 531.867 535.464 537.106C530.032 542.351 522.777 545.278 515.224 545.273H58.9444C51.3975 545.278 44.1418 542.351 38.7098 537.106C33.2775 531.866 30.09 524.715 29.8295 517.174C29.5639 509.627 32.241 502.273 37.2931 496.663L37.2871 496.662Z" fill="black"/>
</svg>
