<svg width="20" height="20" viewBox="0 0 20 20" fill="none" xmlns="http://www.w3.org/2000/svg">
<path d="M5 2.5H4C3.17157 2.5 2.5 3.17157 2.5 4V5C2.5 5.82843 3.17157 6.5 4 6.5H5C5.82843 6.5 6.5 5.82843 6.5 5V4C6.5 3.17157 5.82843 2.5 5 2.5Z" stroke="#585858"/>
<path d="M5 8.5H4C3.17157 8.5 2.5 9.17157 2.5 10V11C2.5 11.8284 3.17157 12.5 4 12.5H5C5.82843 12.5 6.5 11.8284 6.5 11V10C6.5 9.17157 5.82843 8.5 5 8.5Z" stroke="#585858"/>
<path d="M5 14.5H4C3.17157 14.5 2.5 15.1716 2.5 16V17C2.5 17.8284 3.17157 18.5 4 18.5H5C5.82843 18.5 6.5 17.8284 6.5 17V16C6.5 15.1716 5.82843 14.5 5 14.5Z" stroke="#585858"/>
<path d="M11 2.5H10C9.17157 2.5 8.5 3.17157 8.5 4V5C8.5 5.82843 9.17157 6.5 10 6.5H11C11.8284 6.5 12.5 5.82843 12.5 5V4C12.5 3.17157 11.8284 2.5 11 2.5Z" stroke="#585858"/>
<path d="M11 8.5H10C9.17157 8.5 8.5 9.17157 8.5 10V11C8.5 11.8284 9.17157 12.5 10 12.5H11C11.8284 12.5 12.5 11.8284 12.5 11V10C12.5 9.17157 11.8284 8.5 11 8.5Z" stroke="#585858"/>
<path d="M11 14.5H10C9.17157 14.5 8.5 15.1716 8.5 16V17C8.5 17.8284 9.17157 18.5 10 18.5H11C11.8284 18.5 12.5 17.8284 12.5 17V16C12.5 15.1716 11.8284 14.5 11 14.5Z" stroke="#585858"/>
<path d="M17 2.5H16C15.1716 2.5 14.5 3.17157 14.5 4V5C14.5 5.82843 15.1716 6.5 16 6.5H17C17.8284 6.5 18.5 5.82843 18.5 5V4C18.5 3.17157 17.8284 2.5 17 2.5Z" stroke="#585858"/>
<path d="M17 8.5H16C15.1716 8.5 14.5 9.17157 14.5 10V11C14.5 11.8284 15.1716 12.5 16 12.5H17C17.8284 12.5 18.5 11.8284 18.5 11V10C18.5 9.17157 17.8284 8.5 17 8.5Z" stroke="#585858"/>
<path d="M17 14.5H16C15.1716 14.5 14.5 15.1716 14.5 16V17C14.5 17.8284 15.1716 18.5 16 18.5H17C17.8284 18.5 18.5 17.8284 18.5 17V16C18.5 15.1716 17.8284 14.5 17 14.5Z" stroke="#585858"/>
</svg>
