<svg width="91" height="124" viewBox="0 0 91 124" fill="none" xmlns="http://www.w3.org/2000/svg">
<path d="M83.5762 38.0415C83.5762 59.0515 67.8562 62.9655 46.8462 62.9655C25.8362 62.9655 7.49316 59.0515 7.49316 38.0415C7.49316 27.9523 11.5011 18.2763 18.6353 11.1421C25.7694 4.00793 35.4454 0 45.5347 0C55.6239 0 65.2999 4.00793 72.4341 11.1421C79.5682 18.2763 83.5762 27.9523 83.5762 38.0415" fill="#EBE9FF"/>
<path d="M69.9628 44.727C69.9628 55.07 59.8218 56.999 46.2688 56.999C32.7158 56.999 20.8828 55.072 20.8828 44.729C20.8828 34.386 31.8698 25.999 45.4228 25.999C58.9758 25.999 69.9628 34.384 69.9628 44.727Z" fill="#735AFF"/>
<path d="M22.714 113.238C22.604 110.087 22.507 107.404 22.507 103.528H22.407C21.519 106.806 20.373 109.463 19.307 112.658L16.754 120.276C16.5435 120.905 16.1376 121.45 15.5954 121.832C15.0533 122.215 14.4033 122.414 13.7401 122.4C13.077 122.387 12.4354 122.163 11.9089 121.759C11.3823 121.356 10.9984 120.795 10.813 120.158L8.64501 112.725C7.75601 109.564 6.89401 106.92 6.21501 103.525H6.14201C6.00601 107.048 5.88301 110.077 5.72901 113.311L5.38801 120.235C5.36871 120.589 5.27996 120.935 5.12684 121.254C4.97372 121.573 4.75922 121.859 4.4956 122.095C4.23197 122.332 3.92438 122.514 3.59038 122.631C3.25639 122.749 2.90253 122.799 2.54901 122.78C2.19549 122.761 1.84924 122.672 1.53002 122.519C1.2108 122.366 0.92486 122.151 0.688535 121.888C0.452209 121.624 0.270123 121.316 0.152673 120.982C0.0352217 120.648 -0.0152936 120.295 0.00401072 119.941L1.04201 103.041C1.11031 101.91 1.57227 100.84 2.34773 100.014C3.12319 99.1886 4.16319 98.6606 5.28725 98.5219C6.41131 98.3831 7.54848 98.6423 8.5014 99.2544C9.45432 99.8666 10.1628 100.793 10.504 101.873L11.945 106.399C12.745 109.085 13.545 111.651 14.119 114.532H14.248C15.01 111.68 15.927 108.932 16.814 106.348L18.482 101.676C18.8542 100.634 19.5762 99.7523 20.5251 99.1822C21.474 98.6122 22.5911 98.3886 23.6862 98.5495C24.7814 98.7105 25.787 99.246 26.5317 100.065C27.2765 100.884 27.7144 101.936 27.771 103.041L28.633 119.824C28.6541 120.198 28.6007 120.573 28.4759 120.927C28.351 121.28 28.1573 121.606 27.9058 121.884C27.6543 122.162 27.3502 122.388 27.0109 122.547C26.6717 122.707 26.3041 122.798 25.9295 122.815C25.5549 122.831 25.1807 122.773 24.8286 122.644C24.4765 122.515 24.1535 122.318 23.8783 122.063C23.6032 121.808 23.3813 121.502 23.2255 121.161C23.0698 120.819 22.9833 120.451 22.971 120.076L22.714 113.238Z" fill="#EBE9FF"/>
<path d="M58.1643 110.465C58.1643 118.042 52.8333 123.231 44.8943 123.231C37.1183 123.231 32.1943 117.905 32.1943 110.887C32.1943 103.413 37.5463 98.0635 45.2943 98.0635C53.2873 98.0635 58.1693 103.355 58.1693 110.463M38.2993 110.727C38.2993 115.238 40.9493 118.773 45.1993 118.773C49.4843 118.773 52.0663 115.299 52.0663 110.636C52.0663 106.225 49.5223 102.517 45.1943 102.517C40.8663 102.517 38.2943 106.163 38.2943 110.727" fill="#EBE9FF"/>
<path d="M60.5171 120.54C60.517 120.036 60.686 119.545 60.9971 119.148L73.3861 103.324V103.187H64.0341C63.4119 103.187 62.8152 102.94 62.3752 102.5C61.9353 102.06 61.6881 101.463 61.6881 100.841C61.6881 100.219 61.9353 99.6222 62.3752 99.1822C62.8152 98.7423 63.4119 98.4951 64.0341 98.4951H78.8111C79.2397 98.4952 79.6597 98.6154 80.0235 98.842C80.3873 99.0686 80.6803 99.3926 80.8694 99.7773C81.0584 100.162 81.1359 100.592 81.0931 101.018C81.0503 101.445 80.8889 101.851 80.6271 102.19L68.4561 117.971V118.106H79.0101C79.624 118.119 80.2086 118.372 80.6383 118.81C81.068 119.249 81.3086 119.839 81.3086 120.453C81.3086 121.067 81.068 121.656 80.6383 122.095C80.2086 122.534 79.624 122.786 79.0101 122.799H62.7761C62.177 122.799 61.6024 122.561 61.1787 122.137C60.7551 121.714 60.5171 121.139 60.5171 120.54Z" fill="#EBE9FF"/>
<path d="M90.8422 101.37V119.927C90.8422 120.689 90.5395 121.42 90.0006 121.958C89.4617 122.497 88.7308 122.8 87.9687 122.8C87.2066 122.8 86.4757 122.497 85.9368 121.958C85.398 121.42 85.0952 120.689 85.0952 119.927V101.37C85.0952 100.607 85.398 99.8766 85.9368 99.3377C86.4757 98.7988 87.2066 98.4961 87.9687 98.4961C88.7308 98.4961 89.4617 98.7988 90.0006 99.3377C90.5395 99.8766 90.8422 100.607 90.8422 101.37Z" fill="#EBE9FF"/>
<path d="M1.80419 110.681H1.79019C1.72393 110.677 1.6622 110.646 1.61853 110.596C1.57485 110.546 1.5528 110.481 1.55719 110.414L1.95219 104.514C1.95897 104.449 1.99015 104.389 2.03948 104.346C2.08881 104.302 2.15264 104.279 2.21819 104.281C2.25096 104.284 2.28298 104.292 2.31242 104.307C2.34187 104.321 2.36816 104.341 2.3898 104.366C2.41143 104.391 2.42799 104.42 2.43853 104.451C2.44906 104.482 2.45336 104.515 2.45119 104.547L2.05619 110.447C2.05189 110.51 2.0238 110.57 1.97758 110.613C1.93137 110.656 1.87048 110.68 1.80719 110.68" fill="white"/>
<path d="M33.4805 109.426H33.4575C33.3913 109.42 33.3303 109.388 33.2878 109.337C33.2452 109.286 33.2246 109.22 33.2305 109.154C33.3997 106.864 34.3414 104.699 35.9015 103.014C35.9495 102.969 36.0137 102.944 36.08 102.945C36.1463 102.947 36.2092 102.975 36.255 103.023C36.3007 103.071 36.3255 103.135 36.3239 103.201C36.3223 103.268 36.2945 103.331 36.2465 103.376C34.786 104.985 33.9008 107.033 33.7295 109.199C33.7235 109.261 33.6947 109.319 33.6487 109.361C33.6027 109.403 33.5427 109.426 33.4805 109.426" fill="white"/>
<path d="M62.8268 101.091C62.7642 101.091 62.704 101.067 62.6579 101.025C62.6119 100.982 62.5833 100.924 62.5778 100.862C62.545 100.637 62.5619 100.407 62.6272 100.189C62.6925 99.9716 62.8046 99.7707 62.9558 99.6008C63.3069 99.2767 63.7701 99.1014 64.2478 99.1118H68.4598C68.5261 99.1118 68.5897 99.1381 68.6366 99.185C68.6835 99.2319 68.7098 99.2955 68.7098 99.3618C68.7098 99.4281 68.6835 99.4917 68.6366 99.5385C68.5897 99.5854 68.5261 99.6118 68.4598 99.6118H64.2388C63.9003 99.6068 63.5718 99.7264 63.3158 99.9478C63.2156 100.067 63.1424 100.207 63.1011 100.358C63.0599 100.508 63.0516 100.666 63.0768 100.82C63.0795 100.853 63.0758 100.886 63.0657 100.917C63.0557 100.948 63.0396 100.977 63.0183 101.002C62.9971 101.027 62.971 101.048 62.9418 101.063C62.9125 101.078 62.8806 101.087 62.8478 101.09H62.8268" fill="white"/>
<path d="M65.6401 115.289C65.5937 115.289 65.5482 115.276 65.5087 115.251C65.4692 115.227 65.4373 115.192 65.4165 115.15C65.3958 115.109 65.387 115.062 65.3911 115.016C65.3953 114.97 65.4123 114.926 65.4401 114.889L71.7151 106.778C71.7352 106.751 71.7603 106.729 71.7889 106.713C71.8175 106.696 71.8491 106.685 71.8819 106.681C71.9147 106.677 71.948 106.679 71.98 106.687C72.0119 106.696 72.0419 106.71 72.0681 106.731C72.0944 106.751 72.1165 106.776 72.133 106.804C72.1496 106.833 72.1604 106.865 72.1647 106.897C72.1691 106.93 72.167 106.963 72.1585 106.995C72.15 107.027 72.1352 107.057 72.1151 107.084L65.8411 115.195C65.8179 115.226 65.7877 115.251 65.753 115.268C65.7183 115.286 65.68 115.295 65.6411 115.295" fill="white"/>
<path d="M86.0869 112.585C86.0206 112.585 85.957 112.559 85.9101 112.512C85.8633 112.465 85.8369 112.402 85.8369 112.335V102.982C85.8369 102.916 85.8633 102.853 85.9101 102.806C85.957 102.759 86.0206 102.732 86.0869 102.732C86.1532 102.732 86.2168 102.759 86.2637 102.806C86.3106 102.853 86.3369 102.916 86.3369 102.982V112.335C86.3369 112.402 86.3106 112.465 86.2637 112.512C86.2168 112.559 86.1532 112.585 86.0869 112.585Z" fill="white"/>
<path d="M24.4119 12.7158C24.4119 12.7158 15.9919 19.1408 15.8379 25.5838" stroke="white" stroke-width="2" stroke-miterlimit="10" stroke-linecap="round"/>
<path opacity="0.2" d="M45.9229 82.999C63.3198 82.999 77.4229 80.9843 77.4229 78.499C77.4229 76.0137 63.3198 73.999 45.9229 73.999C28.5259 73.999 14.4229 76.0137 14.4229 78.499C14.4229 80.9843 28.5259 82.999 45.9229 82.999Z" fill="black"/>
</svg>
