<svg width="30" height="30" viewBox="0 0 30 30" fill="none" xmlns="http://www.w3.org/2000/svg">
<path d="M30 0H0V30H30V0Z" fill="#FEE500"/>
<path d="M14.6151 3.96094C8.24315 3.96094 3.07715 8.03994 3.07715 13.0759C3.07715 16.3139 5.21715 19.1489 8.43215 20.7709L7.34615 24.8279C7.3262 24.8875 7.32331 24.9515 7.3378 25.0126C7.35229 25.0738 7.38358 25.1296 7.42815 25.1739C7.48897 25.2364 7.57198 25.2723 7.65915 25.2739C7.73243 25.2708 7.80267 25.2437 7.85915 25.1969L12.5381 22.0399C13.2259 22.1409 13.92 22.1927 14.6151 22.1949C20.9871 22.1949 26.1531 18.1149 26.1531 13.0799C26.1531 8.04494 20.9861 3.96094 14.6151 3.96094Z" fill="#2B1718"/>
</svg>
