<svg width="20" height="20" viewBox="0 0 20 20" fill="none" xmlns="http://www.w3.org/2000/svg">
<path d="M10 19C14.4183 19 18 17.8807 18 16.5C18 15.1193 14.4183 14 10 14C5.58172 14 2 15.1193 2 16.5C2 17.8807 5.58172 19 10 19Z" fill="white"/>
<path d="M10 18.5C14.1421 18.5 17.5 17.6046 17.5 16.5C17.5 15.3954 14.1421 14.5 10 14.5C5.85786 14.5 2.5 15.3954 2.5 16.5C2.5 17.6046 5.85786 18.5 10 18.5Z" stroke="#585858"/>
<path d="M10.0001 1.06201C8.19196 1.06228 6.45793 1.78069 5.17937 3.05925C3.9008 4.33782 3.18239 6.07185 3.18213 7.88001C3.18213 11.646 7.82813 16.938 10.0001 16.938C12.1721 16.938 16.8181 11.646 16.8181 7.88001C16.8179 6.07185 16.0995 4.33782 14.8209 3.05925C13.5423 1.78069 11.8083 1.06228 10.0001 1.06201ZM10.0001 11.006C9.29029 11.006 8.5964 10.7955 8.00619 10.4012C7.41598 10.0068 6.95597 9.44627 6.68433 8.79046C6.41268 8.13466 6.34161 7.41303 6.48009 6.71683C6.61857 6.02063 6.96039 5.38114 7.46232 4.87921C7.96425 4.37727 8.60375 4.03546 9.29995 3.89697C9.99615 3.75849 10.7178 3.82957 11.3736 4.10121C12.0294 4.37285 12.5899 4.83286 12.9843 5.42307C13.3786 6.01328 13.5891 6.70717 13.5891 7.41701C13.5893 7.88836 13.4965 8.35512 13.3162 8.79062C13.1359 9.22612 12.8715 9.62181 12.5382 9.95511C12.2049 10.2884 11.8092 10.5528 11.3737 10.7331C10.9382 10.9134 10.4715 11.0061 10.0001 11.006Z" fill="white" stroke="#585858" stroke-linecap="round" stroke-linejoin="round"/>
</svg>
