<svg width="70" height="61" viewBox="0 0 70 61" fill="none" xmlns="http://www.w3.org/2000/svg">
<path d="M51.2894 3.58301C46.1512 1.22224 40.5634 0 34.9089 0C29.2543 0 23.6666 1.22224 18.5284 3.58301C7.56737 8.71301 0.109375 24.429 0.109375 36.07C0.109375 52.897 15.6914 60.936 34.9094 60.936C41.017 60.9534 47.0649 59.7349 52.6894 57.354C63.6524 52.225 69.7144 47.713 69.7144 36.07C69.7144 24.427 62.2524 8.71201 51.2894 3.58301Z" fill="#EBE9FF"/>
<path d="M47.7289 11.1938C46.0724 10.4224 44.3472 9.80841 42.5759 9.35978C35.7383 7.61724 28.5105 8.26398 22.0909 11.1928C14.5609 14.7178 8.51286 27.1838 8.51286 36.0698C8.41652 38.4169 8.95989 40.7461 10.0849 42.8083C11.2099 44.8706 12.8742 46.5883 14.8999 47.7778C21.9659 52.3928 34.3999 53.6178 43.6519 51.5498C45.5379 51.1464 47.3749 50.5405 49.1309 49.7428C59.6389 44.8258 61.3139 42.3238 61.3139 36.0698C61.3139 27.1798 55.2619 14.7168 47.7309 11.1938" fill="#E8B5B1"/>
<path d="M23.2518 30.043C25.3428 30.043 27.0378 31.393 27.0378 33.058C27.0378 34.723 25.3428 36.072 23.2518 36.072C21.1608 36.072 19.4658 34.722 19.4658 33.058C19.4658 31.394 21.1608 30.043 23.2518 30.043Z" fill="#FFDBE0"/>
<path d="M46.5712 30.043C48.6622 30.043 50.3572 31.393 50.3572 33.058C50.3572 34.723 48.6572 36.072 46.5712 36.072C44.4852 36.072 42.7852 34.722 42.7852 33.058C42.7852 31.394 44.4802 30.043 46.5712 30.043Z" fill="#FFDBE0"/>
<path d="M26.2847 27.4468C25.4951 27.4476 24.7381 27.7616 24.1798 28.3199C23.6215 28.8782 23.3075 29.6352 23.3067 30.4248C23.3005 30.5665 23.3231 30.708 23.373 30.8408C23.423 30.9736 23.4994 31.0949 23.5975 31.1974C23.6956 31.2999 23.8134 31.3814 23.9439 31.4372C24.0744 31.4929 24.2148 31.5216 24.3567 31.5216C24.4985 31.5216 24.639 31.4929 24.7694 31.4372C24.8999 31.3814 25.0178 31.2999 25.1159 31.1974C25.214 31.0949 25.2903 30.9736 25.3403 30.8408C25.3903 30.708 25.4129 30.5665 25.4067 30.4248C25.4067 30.1922 25.4991 29.9691 25.6635 29.8046C25.828 29.6402 26.0511 29.5478 26.2837 29.5478C26.5163 29.5478 26.7393 29.6402 26.9038 29.8046C27.0683 29.9691 27.1607 30.1922 27.1607 30.4248C27.1545 30.5665 27.1771 30.708 27.227 30.8408C27.277 30.9736 27.3534 31.0949 27.4515 31.1974C27.5496 31.2999 27.6674 31.3814 27.7979 31.4372C27.9284 31.4929 28.0688 31.5216 28.2107 31.5216C28.3525 31.5216 28.493 31.4929 28.6234 31.4372C28.7539 31.3814 28.8718 31.2999 28.9699 31.1974C29.068 31.0949 29.1443 30.9736 29.1943 30.8408C29.2443 30.708 29.2669 30.5665 29.2607 30.4248C29.2599 29.6352 28.9459 28.8782 28.3876 28.3199C27.8292 27.7616 27.0722 27.4476 26.2827 27.4468" fill="#313D40"/>
<path d="M43.5171 27.4468C42.7275 27.4476 41.9705 27.7616 41.4122 28.3199C40.8539 28.8782 40.5399 29.6352 40.5391 30.4248C40.5391 30.7033 40.6497 30.9703 40.8466 31.1672C41.0435 31.3642 41.3106 31.4748 41.5891 31.4748C41.8675 31.4748 42.1346 31.3642 42.3315 31.1672C42.5284 30.9703 42.6391 30.7033 42.6391 30.4248C42.6391 30.1922 42.7315 29.9691 42.8959 29.8046C43.0604 29.6402 43.2835 29.5478 43.5161 29.5478C43.7487 29.5478 43.9717 29.6402 44.1362 29.8046C44.3007 29.9691 44.3931 30.1922 44.3931 30.4248C44.3931 30.7033 44.5037 30.9703 44.7006 31.1672C44.8975 31.3642 45.1646 31.4748 45.4431 31.4748C45.7215 31.4748 45.9886 31.3642 46.1855 31.1672C46.3824 30.9703 46.4931 30.7033 46.4931 30.4248C46.4923 29.6352 46.1783 28.8782 45.6199 28.3199C45.0616 27.7616 44.3046 27.4476 43.5151 27.4468" fill="#313D40"/>
<path d="M34.9992 28.5332C34.7287 28.545 34.4731 28.6608 34.2859 28.8564C34.0986 29.052 33.9941 29.3124 33.9941 29.5832C33.9941 29.854 34.0986 30.1144 34.2859 30.31C34.4731 30.5056 34.7287 30.6214 34.9992 30.6332C35.1318 30.6332 35.259 30.6859 35.3528 30.7796C35.4465 30.8734 35.4992 31.0006 35.4992 31.1332C35.4992 31.2658 35.4465 31.393 35.3528 31.4868C35.259 31.5805 35.1318 31.6332 34.9992 31.6332C34.7207 31.6332 34.4537 31.7438 34.2568 31.9407C34.0598 32.1377 33.9492 32.4047 33.9492 32.6832C33.9492 32.9617 34.0598 33.2287 34.2568 33.4257C34.4537 33.6226 34.7207 33.7332 34.9992 33.7332C35.1318 33.7332 35.259 33.7859 35.3528 33.8797C35.4465 33.9734 35.4992 34.1006 35.4992 34.2332C35.4992 34.3658 35.4465 34.493 35.3528 34.5868C35.259 34.6805 35.1318 34.7332 34.9992 34.7332C34.7287 34.745 34.4731 34.8608 34.2859 35.0564C34.0986 35.252 33.9941 35.5124 33.9941 35.7832C33.9941 36.054 34.0986 36.3144 34.2859 36.51C34.4731 36.7056 34.7287 36.8214 34.9992 36.8332C35.4804 36.8321 35.9518 36.6974 36.361 36.4443C36.7701 36.1911 37.101 35.8294 37.3168 35.3993C37.5326 34.9693 37.6249 34.4878 37.5833 34.0084C37.5417 33.5291 37.3679 33.0706 37.0812 32.6842C37.3685 32.2978 37.5427 31.8391 37.5846 31.3595C37.6265 30.8798 37.5344 30.3979 37.3186 29.9675C37.1027 29.5371 36.7715 29.1751 36.362 28.9219C35.9525 28.6686 35.4807 28.5341 34.9992 28.5332Z" fill="#313D40"/>
</svg>
