<svg width="20" height="20" viewBox="0 0 20 20" fill="none" xmlns="http://www.w3.org/2000/svg">
<path d="M2.23682 15.7558V5.32383C2.23677 5.12607 2.29536 4.93273 2.40518 4.76826C2.51501 4.60379 2.67113 4.47558 2.85382 4.39983L6.65782 2.82383C6.90099 2.72409 7.17365 2.72409 7.41682 2.82383L12.3578 4.83383C12.4853 4.88592 12.6221 4.91111 12.7598 4.90784C12.8975 4.90457 13.033 4.87291 13.1578 4.81483L16.3368 3.32883C16.4892 3.25788 16.6571 3.22651 16.8248 3.23761C16.9926 3.24871 17.1548 3.30192 17.2966 3.39233C17.4383 3.48274 17.555 3.60742 17.6358 3.75485C17.7166 3.90229 17.7589 4.06771 17.7588 4.23583V14.3968C17.7589 14.5928 17.7014 14.7844 17.5935 14.948C17.4856 15.1116 17.332 15.2398 17.1518 15.3168L12.8128 17.1708C12.689 17.2235 12.5559 17.2507 12.4213 17.2507C12.2868 17.2507 12.1536 17.2235 12.0298 17.1708L7.44982 15.2318C7.32074 15.1774 7.18167 15.1507 7.04162 15.1535C6.90156 15.1562 6.76365 15.1884 6.63682 15.2478L3.66582 16.6588C3.51342 16.7312 3.34518 16.7639 3.17677 16.7537C3.00836 16.7436 2.84525 16.691 2.70262 16.6009C2.56 16.5108 2.44249 16.386 2.36105 16.2383C2.2796 16.0905 2.23687 15.9245 2.23682 15.7558V15.7558Z" stroke="#585858"/>
<path d="M7.31299 2.82373V15.1567" stroke="#585858"/>
<path d="M12.7319 4.91797V17.251" stroke="#585858"/>
</svg>
