<svg width="34" height="42" viewBox="0 0 34 42" fill="none" xmlns="http://www.w3.org/2000/svg">
<path d="M17 41.1C15.6432 41.1 13.9679 40.2357 12.0208 38.5312C10.2556 36.9859 8.40865 34.8659 6.67963 32.4003C4.9072 29.8728 3.40046 27.1784 2.3223 24.6083C1.11311 21.7258 0.5 19.166 0.5 17C0.5 12.5926 2.21627 8.44903 5.33265 5.33265C8.44903 2.21627 12.5926 0.5 17 0.5C21.4074 0.5 25.551 2.21627 28.6674 5.33265C31.7837 8.44903 33.5 12.5926 33.5 17C33.5 19.166 32.8869 21.7258 31.6777 24.6083C30.5995 27.1784 29.0928 29.8728 27.3204 32.4003C25.5914 34.8659 23.7444 36.9859 21.9792 38.5312C20.0321 40.2357 18.3568 41.1 17 41.1ZM17 10.8104C14.1878 10.8104 11.9 13.0983 11.9 15.9104C11.9 18.7226 14.1878 21.0104 17 21.0104C19.8121 21.0104 22.1 18.7226 22.1 15.9104C22.1 13.0983 19.8121 10.8104 17 10.8104Z" fill="#735AFF"/>
<path d="M17 1C8.1632 1 1 8.1632 1 17C1 25.8352 11.904 40.6 17 40.6C22.096 40.6 33 25.8352 33 17C33 8.1632 25.8368 1 17 1ZM17 21.5104C13.9072 21.5104 11.4 19.0032 11.4 15.9104C11.4 12.8176 13.9072 10.3104 17 10.3104C20.0928 10.3104 22.6 12.8176 22.6 15.9104C22.6 19.0032 20.0928 21.5104 17 21.5104ZM17 0C19.2946 0 21.5211 0.4496 23.6176 1.33632C25.6421 2.19258 27.46 3.41818 29.0209 4.97909C30.5818 6.54 31.8074 8.35795 32.6637 10.3824C33.5504 12.4789 34 14.7054 34 17C34 19.2328 33.3738 21.8577 32.1388 24.8017C31.047 27.4043 29.5224 30.1311 27.7297 32.6874C24.7082 36.996 20.3028 41.6 17 41.6C13.6972 41.6 9.29177 36.996 6.27026 32.6874C4.47762 30.1311 2.953 27.4043 1.86123 24.8017C0.626213 21.8577 0 19.2328 0 17C0 14.7054 0.4496 12.4789 1.33632 10.3824C2.19258 8.35795 3.41818 6.54 4.97909 4.97909C6.54 3.41818 8.35795 2.19258 10.3824 1.33632C12.4789 0.4496 14.7054 0 17 0ZM17 20.5104C19.5365 20.5104 21.6 18.4469 21.6 15.9104C21.6 13.374 19.5365 11.3104 17 11.3104C14.4636 11.3104 12.4 13.374 12.4 15.9104C12.4 18.4469 14.4636 20.5104 17 20.5104Z" fill="white"/>
</svg>
