<svg width="44" height="44" viewBox="0 0 44 44" fill="none" xmlns="http://www.w3.org/2000/svg">
<path d="M28 0H16C7.16344 0 0 7.16344 0 16V28C0 36.8366 7.16344 44 16 44H28C36.8366 44 44 36.8366 44 28V16C44 7.16344 36.8366 0 28 0Z" fill="#735AFF"/>
<path d="M8.67702 18.7273H10.5733L12.5762 23.6136H12.6614L14.6642 18.7273H16.5605V26H15.0691V21.2663H15.0087L13.1266 25.9645H12.111L10.2289 21.2486H10.1685V26H8.67702V18.7273ZM24.5107 22.3636C24.5107 23.1567 24.3603 23.8314 24.0597 24.3878C23.7614 24.9441 23.3542 25.3691 22.8381 25.6626C22.3243 25.9538 21.7467 26.0994 21.1051 26.0994C20.4588 26.0994 19.8788 25.9527 19.3651 25.6591C18.8513 25.3655 18.4453 24.9406 18.147 24.3842C17.8487 23.8279 17.6996 23.1544 17.6996 22.3636C17.6996 21.5705 17.8487 20.8958 18.147 20.3395C18.4453 19.7831 18.8513 19.3594 19.3651 19.0682C19.8788 18.7746 20.4588 18.6278 21.1051 18.6278C21.7467 18.6278 22.3243 18.7746 22.8381 19.0682C23.3542 19.3594 23.7614 19.7831 24.0597 20.3395C24.3603 20.8958 24.5107 21.5705 24.5107 22.3636ZM22.9517 22.3636C22.9517 21.8499 22.8748 21.4167 22.7209 21.0639C22.5694 20.7112 22.3551 20.4437 22.0781 20.2614C21.8011 20.0791 21.4768 19.9879 21.1051 19.9879C20.7334 19.9879 20.4091 20.0791 20.1321 20.2614C19.8551 20.4437 19.6397 20.7112 19.4858 21.0639C19.3343 21.4167 19.2585 21.8499 19.2585 22.3636C19.2585 22.8774 19.3343 23.3106 19.4858 23.6634C19.6397 24.0161 19.8551 24.2836 20.1321 24.4659C20.4091 24.6482 20.7334 24.7393 21.1051 24.7393C21.4768 24.7393 21.8011 24.6482 22.0781 24.4659C22.3551 24.2836 22.5694 24.0161 22.7209 23.6634C22.8748 23.3106 22.9517 22.8774 22.9517 22.3636ZM25.5716 26V25.0874L29.2008 19.995H25.5645V18.7273H31.1326V19.6399L27.4998 24.7322H31.1397V26H25.5716ZM33.8572 18.7273V26H32.3196V18.7273H33.8572Z" fill="white"/>
</svg>
