<svg width="91" height="26" viewBox="0 0 91 26" fill="none" xmlns="http://www.w3.org/2000/svg">
<path d="M22.714 15.175C22.604 12.024 22.507 9.34103 22.507 5.46503H22.407C21.519 8.74303 20.373 11.4 19.307 14.595L16.754 22.213C16.5435 22.842 16.1376 23.3873 15.5954 23.7694C15.0533 24.1516 14.4033 24.3506 13.7401 24.3374C13.077 24.3242 12.4354 24.0996 11.9089 23.6962C11.3823 23.2929 10.9984 22.7319 10.813 22.095L8.64501 14.662C7.75601 11.501 6.89401 8.85703 6.21501 5.46203H6.14201C6.00601 8.98503 5.88301 12.014 5.72901 15.248L5.38801 22.172C5.36871 22.5255 5.27996 22.8718 5.12684 23.191C4.97372 23.5102 4.75922 23.7962 4.4956 24.0325C4.23197 24.2688 3.92438 24.4509 3.59038 24.5684C3.25639 24.6858 2.90253 24.7363 2.54901 24.717C2.19549 24.6977 1.84924 24.609 1.53002 24.4559C1.2108 24.3027 0.92486 24.0882 0.688535 23.8246C0.452209 23.561 0.270123 23.2534 0.152673 22.9194C0.0352217 22.5854 -0.0152936 22.2315 0.00401072 21.878L1.04201 4.97803C1.11031 3.8475 1.57227 2.77656 2.34773 1.95107C3.12319 1.12558 4.16319 0.597647 5.28725 0.458892C6.41131 0.320137 7.54848 0.579316 8.5014 1.19145C9.45432 1.80359 10.1628 2.73004 10.504 3.81003L11.945 8.33603C12.745 11.022 13.545 13.588 14.119 16.469H14.248C15.01 13.617 15.927 10.869 16.814 8.28503L18.482 3.61303C18.8542 2.57055 19.5762 1.68928 20.5251 1.11924C21.474 0.549197 22.5911 0.325615 23.6862 0.486549C24.7814 0.647482 25.787 1.18298 26.5317 2.0019C27.2765 2.82082 27.7144 3.87254 27.771 4.97803L28.633 21.761C28.6541 22.1354 28.6007 22.5103 28.4759 22.8639C28.351 23.2175 28.1573 23.5428 27.9058 23.8209C27.6543 24.0991 27.3502 24.3246 27.0109 24.4844C26.6717 24.6441 26.3041 24.735 25.9295 24.7516C25.5549 24.7683 25.1807 24.7105 24.8286 24.5815C24.4765 24.4525 24.1535 24.2549 23.8783 24.0002C23.6032 23.7455 23.3813 23.4386 23.2255 23.0975C23.0698 22.7564 22.9833 22.3878 22.971 22.013L22.714 15.175Z" fill="#EBE9FF"/>
<path d="M58.1643 12.402C58.1643 19.979 52.8333 25.168 44.8943 25.168C37.1183 25.168 32.1943 19.842 32.1943 12.824C32.1943 5.35 37.5463 0 45.2943 0C53.2873 0 58.1693 5.29199 58.1693 12.4M38.2993 12.664C38.2993 17.175 40.9493 20.71 45.1993 20.71C49.4843 20.71 52.0663 17.236 52.0663 12.573C52.0663 8.162 49.5223 4.45399 45.1943 4.45399C40.8663 4.45399 38.2943 8.09999 38.2943 12.664" fill="#EBE9FF"/>
<path d="M60.5166 22.477C60.5165 21.9724 60.6855 21.4823 60.9966 21.085L73.3856 5.261V5.12401H64.0336C63.4114 5.12401 62.8147 4.87683 62.3747 4.43687C61.9348 3.99691 61.6876 3.40021 61.6876 2.77801C61.6876 2.15581 61.9348 1.55909 62.3747 1.11913C62.8147 0.679173 63.4114 0.432007 64.0336 0.432007H78.8106C79.2392 0.432098 79.6592 0.55226 80.023 0.778877C80.3868 1.00549 80.6798 1.3295 80.8689 1.71416C81.0579 2.09883 81.1355 2.52875 81.0926 2.95522C81.0498 3.38168 80.8884 3.78762 80.6266 4.12701L68.4556 19.908V20.043H79.0096C79.6235 20.0557 80.2081 20.3085 80.6378 20.7471C81.0675 21.1858 81.3082 21.7754 81.3082 22.3895C81.3082 23.0036 81.0675 23.5932 80.6378 24.0319C80.2081 24.4705 79.6235 24.7233 79.0096 24.736H62.7756C62.1765 24.736 61.6019 24.498 61.1782 24.0744C60.7546 23.6507 60.5166 23.0761 60.5166 22.477Z" fill="#EBE9FF"/>
<path d="M90.8417 3.306V21.863C90.8417 22.6251 90.539 23.356 90.0001 23.8949C89.4612 24.4338 88.7303 24.7365 87.9682 24.7365C87.2061 24.7365 86.4752 24.4338 85.9364 23.8949C85.3975 23.356 85.0947 22.6251 85.0947 21.863V3.306C85.0947 2.5439 85.3975 1.81301 85.9364 1.27412C86.4752 0.735238 87.2061 0.432495 87.9682 0.432495C88.7303 0.432495 89.4612 0.735238 90.0001 1.27412C90.539 1.81301 90.8417 2.5439 90.8417 3.306Z" fill="#EBE9FF"/>
</svg>
