<svg width="12" height="14" viewBox="0 0 12 14" fill="none" xmlns="http://www.w3.org/2000/svg">
<path d="M6 1.1792C4.67392 1.1792 3.40215 1.70598 2.46447 2.64367C1.52678 3.58135 1 4.85312 1 6.1792C1 8.9412 4.407 12.8222 6 12.8222C7.593 12.8222 11 8.9412 11 6.1792C11 5.52259 10.8707 4.87241 10.6194 4.26578C10.3681 3.65915 9.99983 3.10796 9.53553 2.64367C9.07124 2.17937 8.52005 1.81108 7.91342 1.5598C7.30679 1.30853 6.65661 1.1792 6 1.1792ZM6 8.4712C5.47944 8.4712 4.97057 8.31684 4.53774 8.02763C4.10491 7.73842 3.76756 7.32736 3.56835 6.84642C3.36914 6.36549 3.31702 5.83628 3.41857 5.32572C3.52013 4.81516 3.7708 4.34619 4.1389 3.97809C4.50699 3.61 4.97596 3.35933 5.48652 3.25777C5.99708 3.15622 6.52629 3.20834 7.00722 3.40755C7.48816 3.60676 7.89922 3.94411 8.18843 4.37694C8.47764 4.80977 8.632 5.31864 8.632 5.8392C8.632 6.53725 8.3547 7.20671 7.8611 7.7003C7.36751 8.1939 6.69805 8.4712 6 8.4712Z" fill="#B1ADC2"/>
</svg>
