<svg width="23" height="23" viewBox="0 0 23 23" fill="none" xmlns="http://www.w3.org/2000/svg">
<path d="M18.0089 12.219L12.0769 18.15C11.6934 18.5335 11.1733 18.749 10.6309 18.749C10.0886 18.749 9.56842 18.5335 9.18491 18.15L4.84991 13.815C4.46642 13.4315 4.25098 12.9114 4.25098 12.369C4.25098 11.8267 4.46642 11.3065 4.84991 10.923L10.7819 4.99103C11.1491 4.62258 11.643 4.40801 12.1629 4.39103L16.6409 4.25003C16.9203 4.24128 17.1986 4.28988 17.4585 4.39283C17.7184 4.49579 17.9544 4.65091 18.152 4.84863C18.3496 5.04634 18.5047 5.28246 18.6075 5.54241C18.7103 5.80236 18.7588 6.08062 18.7499 6.36003L18.6079 10.838C18.5912 11.3578 18.377 11.8517 18.0089 12.219Z" stroke="#585858" stroke-linecap="round" stroke-linejoin="round"/>
<path d="M14.0711 10.443C14.9177 10.443 15.6041 9.75661 15.6041 8.90995C15.6041 8.0633 14.9177 7.37695 14.0711 7.37695C13.2244 7.37695 12.5381 8.0633 12.5381 8.90995C12.5381 9.75661 13.2244 10.443 14.0711 10.443Z" stroke="#585858" stroke-linecap="round" stroke-linejoin="round"/>
</svg>
