<svg width="24" height="24" viewBox="0 0 24 24" fill="none" xmlns="http://www.w3.org/2000/svg">
<path d="M20 11.1C20 9.6 18.6 9 17.8 9H15.6C16 8 16.3 6.8 16.1 5.9C15.6 4.1 14.1 4 13.6 4H13.5C13.1 4 12.9 4.2 12.7 4.5L11.7 7.3L9 10H4V19H9V18C9.2 18 9.7 18.3 10.2 18.6C11.4 19.2 13.1 20.1 14.7 20.1C17.1 20.1 17.9 19.8 18.5 18.8C18.8 18.2 18.8 17.7 18.8 17.4C19 17.2 19.3 16.9 19.4 16.4C19.5 15.9 19.5 15.6 19.4 15.3C19.6 15 19.8 14.6 19.9 14C19.9 13.5 19.8 13.1 19.7 12.8C19.8 12.4 20 11.9 20 11.1V11.1ZM6.5 17.5C5.9 17.5 5.5 17.1 5.5 16.5C5.5 15.9 5.9 15.5 6.5 15.5C7.1 15.5 7.5 15.9 7.5 16.5C7.5 17.1 7.1 17.5 6.5 17.5ZM18.7 13.1C18.7 13.1 18.9 13.3 18.9 13.8C18.9 14.4 18.5 14.7 18.5 14.7L18.2 15L18.4 15.3C18.4 15.3 18.6 15.6 18.4 16C18.3 16.4 17.9 16.7 17.9 16.7L17.6 17L17.8 17.4C17.8 17.4 18 17.8 17.7 18.3C17.5 18.7 17.3 19 14.8 19C13.4 19 11.8 18.2 10.7 17.6C9.9 17.2 9.4 17 9 17V11H9.1C9.3 11 9.5 10.9 9.7 10.8L12.5 8C12.6 7.9 12.6 7.8 12.7 7.7L13.7 5C14.2 5 14.9 5.2 15.1 6.1C15.2 6.7 15 7.7 14.5 8.9C14.4 9.2 14.4 9.4 14.6 9.7C14.7 9.9 15 10 15.3 10H17.8C17.9 10 19 10.2 19 11.1C19 11.9 18.7 12.3 18.7 12.3L18.4 12.7L18.7 13.1V13.1Z" fill="#1C2E45" fill-opacity="0.6"/>
</svg>
